HIERARCHY
ROOT Hips
{
	OFFSET 0.00000 0.00000 0.00000
	CHANNELS 6 Xposition Yposition Zposition Zrotation Yrotation Xrotation 
	JOINT LHipJoint
	{
		OFFSET 0 0 0
		CHANNELS 3 Zrotation Yrotation Xrotation
		JOINT LeftUpLeg
		{
			OFFSET 1.58895 -1.83665 0.71753
			CHANNELS 3 Zrotation Yrotation Xrotation
			JOINT LeftLeg
			{
				OFFSET 2.50528 -6.88321 0.00000
				CHANNELS 3 Zrotation Yrotation Xrotation
				JOINT LeftFoot
				{
					OFFSET 2.63244 -7.23257 0.00000
					CHANNELS 3 Zrotation Yrotation Xrotation
					JOINT LeftToeBase
					{
						OFFSET 0.23691 -0.65090 1.72750
						CHANNELS 3 Zrotation Yrotation Xrotation
						End Site
						{
							OFFSET 0.00000 -0.00000 0.92561
						}
					}
				}
			}
		}
	}
	JOINT RHipJoint
	{
		OFFSET 0 0 0
		CHANNELS 3 Zrotation Yrotation Xrotation
		JOINT RightUpLeg
		{
			OFFSET -1.51435 -1.83665 0.71753
			CHANNELS 3 Zrotation Yrotation Xrotation
			JOINT RightLeg
			{
				OFFSET -2.54551 -6.99375 0.00000
				CHANNELS 3 Zrotation Yrotation Xrotation
				JOINT RightFoot
				{
					OFFSET -2.66027 -7.30903 0.00000
					CHANNELS 3 Zrotation Yrotation Xrotation
					JOINT RightToeBase
					{
						OFFSET -0.22981 -0.63138 2.03959
						CHANNELS 3 Zrotation Yrotation Xrotation
						End Site
						{
							OFFSET -0.00000 -0.00000 1.07060
						}
					}
				}
			}
		}
	}
	JOINT LowerBack
	{
		OFFSET 0 0 0
		CHANNELS 3 Zrotation Yrotation Xrotation
		JOINT Spine
		{
			OFFSET -0.02651 1.86275 -0.11152
			CHANNELS 3 Zrotation Yrotation Xrotation
			JOINT Spine1
			{
				OFFSET 0.01019 1.86224 0.04087
				CHANNELS 3 Zrotation Yrotation Xrotation
				JOINT Neck
				{
					OFFSET 0 0 0
					CHANNELS 3 Zrotation Yrotation Xrotation
					JOINT Neck1
					{
						OFFSET -0.01926 1.80512 0.08867
						CHANNELS 3 Zrotation Yrotation Xrotation
						JOINT Head
						{
							OFFSET 0.05516 1.76451 -0.38475
							CHANNELS 3 Zrotation Yrotation Xrotation
							End Site
							{
								OFFSET 0.01592 1.82587 -0.14001
							}
						}
					}
				}
				JOINT LeftShoulder
				{
					OFFSET 0 0 0
					CHANNELS 3 Zrotation Yrotation Xrotation
					JOINT LeftArm
					{
						OFFSET 3.47116 1.51376 0.14491
						CHANNELS 3 Zrotation Yrotation Xrotation
						JOINT LeftForeArm
						{
							OFFSET 4.78095 -0.00000 0.00000
							CHANNELS 3 Zrotation Yrotation Xrotation
							JOINT LeftHand
							{
								OFFSET 3.58615 -0.00000 -0.00000
								CHANNELS 3 Zrotation Yrotation Xrotation
								JOINT LeftFingerBase
								{
									OFFSET 0 0 0
									CHANNELS 3 Zrotation Yrotation Xrotation
									JOINT LeftHandIndex1
									{
										OFFSET 0.65981 -0.00000 0.00000
										CHANNELS 3 Zrotation Yrotation Xrotation
										End Site
										{
											OFFSET 0.53196 -0.00000 0.00000
										}
									}
								}
								JOINT LThumb
								{
									OFFSET 0 0 0
									CHANNELS 3 Zrotation Yrotation Xrotation
									End Site
									{
										OFFSET 0.54008 -0.00000 0.54008
									}
								}
							}
						}
					}
				}
				JOINT RightShoulder
				{
					OFFSET 0 0 0
					CHANNELS 3 Zrotation Yrotation Xrotation
					JOINT RightArm
					{
						OFFSET -3.31725 1.61216 0.35156
						CHANNELS 3 Zrotation Yrotation Xrotation
						JOINT RightForeArm
						{
							OFFSET -4.48913 -0.00000 0.00000
							CHANNELS 3 Zrotation Yrotation Xrotation
							JOINT RightHand
							{
								OFFSET -3.70510 -0.00000 0.00000
								CHANNELS 3 Zrotation Yrotation Xrotation
								JOINT RightFingerBase
								{
									OFFSET 0 0 0
									CHANNELS 3 Zrotation Yrotation Xrotation
									JOINT RightHandIndex1
									{
										OFFSET -0.44914 -0.00000 0.00000
										CHANNELS 3 Zrotation Yrotation Xrotation
										End Site
										{
											OFFSET -0.36211 -0.00000 0.00000
										}
									}
								}
								JOINT RThumb
								{
									OFFSET 0 0 0
									CHANNELS 3 Zrotation Yrotation Xrotation
									End Site
									{
										OFFSET -0.36763 -0.00000 0.36763
									}
								}
							}
						}
					}
				}
			}
		}
	}
}
MOTION
Frames: 14
Frame Time: .0083333
-0.1512 18.2991 4.6415 -3.6058 -20.8781 -1.4169 0.0000 0.0000 0.0000 -11.4277 4.2742 -12.8696 3.8780 11.9962 35.7187 1.9700 4.8655 -28.6154 8.0312 -16.1422 -52.6751 0.0000 0.0000 0.0000 17.3413 15.2115 -2.7656 -1.2134 -6.9876 19.6787 -0.7587 -0.1249 -16.5085 -0.6561 5.1808 -14.4250 -1.2228 0.7628 18.0419 0.4446 0.7385 5.4978 1.0103 0.3318 -4.2264 11.2571 3.6275 -13.9039 -3.5162 3.1285 9.1210 -2.6426 1.6879 5.2522 0.0000 0.0000 0.0000 -89.1887 11.1399 55.9963 137.6463 -49.4042 -99.7913 -0.0000 0.0000 -10.0658 16.9485 -33.0468 -9.4356 -7.1250 0.0000 -0.0000 -8.4674 -3.9086 9.1223 0.0000 0.0000 0.0000 87.1038 0.3828 79.0063 -141.6275 47.0756 -102.7622 0.0000 0.0000 7.2810 -22.3974 -26.6964 10.4895 7.1250 -0.0000 -0.0000 8.6763 -58.3110 -2.8389
-0.1518 18.2989 4.6325 -3.5846 -20.6227 -1.4797 0.0000 0.0000 0.0000 -11.4456 4.0796 -12.8506 3.8828 12.0028 35.7419 1.9688 4.8170 -28.5826 8.0432 -16.1509 -52.7182 0.0000 0.0000 0.0000 17.3174 15.0889 -2.7353 -1.2143 -6.9902 19.6863 -0.7706 -0.1825 -16.6581 -0.6491 5.1537 -14.3475 -1.1389 0.7987 18.0014 0.4353 0.8001 5.5821 0.9404 0.3611 -4.1157 11.0950 3.7082 -13.9578 -3.4043 3.2477 9.0390 -2.5697 1.7456 5.2393 0.0000 -0.0000 0.0000 -89.2415 10.6145 56.4494 137.8184 -49.3106 -99.9219 -0.0000 0.0000 -10.0617 16.9995 -33.0087 -9.4556 -7.1250 0.0000 -0.0000 -8.4343 -3.8798 9.0820 0.0000 -0.0000 0.0000 87.1483 0.3292 79.4752 -141.9967 46.8414 -103.0320 0.0000 0.0000 6.4828 -23.5420 -25.7090 10.7027 7.1250 -0.0000 -0.0000 6.9717 -57.5511 -2.1495
-0.1522 18.2987 4.6236 -3.5868 -20.3624 -1.5233 0.0000 0.0000 0.0000 -11.4357 3.9292 -12.8657 3.8892 12.0114 35.7724 1.9572 4.7920 -28.4939 8.0772 -16.1757 -52.8403 0.0000 0.0000 0.0000 17.3185 14.9583 -2.7105 -1.2125 -6.9853 19.6717 -0.7781 -0.2355 -16.7584 -0.6494 5.1551 -14.3513 -1.0770 0.8357 17.9041 0.4531 0.8614 5.6828 0.9126 0.3899 -3.9583 10.8264 3.7895 -13.7885 -3.2092 3.4049 8.7390 -2.4530 1.8205 5.1204 -0.0000 0.0000 0.0000 -89.3307 10.0544 56.8973 137.9805 -49.2219 -100.0447 -0.0000 0.0000 -9.9946 17.0844 -32.9267 -9.4843 -7.1250 0.0000 -0.0000 -8.3770 -3.8136 9.0099 -0.0000 0.0000 0.0000 87.2113 0.3099 79.5906 -142.4622 46.5416 -103.3707 0.0000 0.0000 6.4989 -23.3937 -25.8136 10.6682 7.1250 -0.0000 -0.0000 7.1790 -57.6265 -2.2270
-0.1522 18.2975 4.6110 -3.5917 -20.0666 -1.5688 0.0000 0.0000 0.0000 -11.4155 3.7838 -12.9110 3.9000 12.0261 35.8245 1.9433 4.7237 -28.3677 8.1003 -16.1925 -52.9231 0.0000 0.0000 0.0000 17.3301 14.8440 -2.6755 -1.2086 -6.9744 19.6396 -0.7855 -0.3089 -16.8643 -0.6259 5.0626 -14.0873 -1.0485 0.8831 17.8379 0.4749 0.9300 5.7948 0.9064 0.4222 -3.8060 10.7152 3.8058 -13.7813 -3.1566 3.4425 8.5332 -2.4159 1.8339 5.0541 -0.0000 -0.0000 0.0000 -89.3562 9.4613 57.4089 138.1699 -49.1175 -100.1880 -0.0000 0.0000 -9.9426 17.1270 -33.0250 -9.5337 -7.1250 0.0000 -0.0000 -8.3652 -3.9197 9.0114 -0.0000 -0.0000 0.0000 87.3819 0.4630 79.2431 -142.8430 46.2923 -103.6466 0.0000 0.0000 7.2894 -22.1136 -26.5572 10.2966 7.1250 -0.0000 -0.0000 8.9172 -58.1050 -2.8742
-0.1493 18.2961 4.5979 -3.6305 -19.7552 -1.5973 0.0000 0.0000 0.0000 -11.3728 3.5680 -12.9550 3.9148 12.0461 35.8954 1.9335 4.6416 -28.2615 8.0969 -16.1901 -52.9111 0.0000 0.0000 0.0000 17.3720 14.7694 -2.6333 -1.2051 -6.9646 19.6106 -0.7988 -0.4211 -17.0480 -0.5920 4.9259 -13.6973 -0.9298 0.9051 17.8969 0.4846 0.9795 5.8284 0.8388 0.4469 -3.8008 10.6540 3.7840 -13.8934 -3.1346 3.4093 8.5409 -2.4009 1.8164 5.0709 0.0000 0.0000 0.0000 -89.3505 9.0568 57.9249 138.3842 -48.9986 -100.3499 -0.0000 0.0000 -9.9349 17.1911 -33.2126 -9.6181 -7.1250 0.0000 -0.0000 -8.3527 -4.1188 9.0246 0.0000 0.0000 0.0000 87.5063 0.4703 79.5600 -143.0947 46.1257 -103.8282 0.0000 0.0000 6.3906 -23.3203 -25.4049 10.4780 7.1250 -0.0000 -0.0000 7.0806 -57.1872 -2.1211
-0.1441 18.2948 4.5875 -3.6962 -19.4707 -1.6042 0.0000 0.0000 0.0000 -11.3133 3.3369 -12.9846 3.9273 12.0631 35.9555 1.9306 4.5304 -28.1865 8.0730 -16.1727 -52.8252 0.0000 0.0000 0.0000 17.4255 14.6910 -2.6086 -1.2031 -6.9591 19.5942 -0.8123 -0.5164 -17.2265 -0.5802 4.8774 -13.5592 -0.7831 0.8937 17.8855 0.5180 0.9919 5.8784 0.7887 0.4530 -3.7402 10.4680 3.7930 -13.9098 -3.0303 3.4427 8.4879 -2.3353 1.8323 5.0539 -0.0000 0.0000 0.0000 -89.4320 8.6871 58.3353 138.5581 -48.9014 -100.4810 -0.0000 0.0000 -9.9269 17.3046 -33.3878 -9.7287 -7.1250 0.0000 -0.0000 -8.3114 -4.3148 9.0054 -0.0000 0.0000 0.0000 87.5658 0.4869 79.6429 -143.4935 45.8584 -104.1151 0.0000 0.0000 6.4232 -23.2848 -25.4933 10.4937 7.1250 -0.0000 -0.0000 7.1570 -57.2710 -2.1586
-0.1383 18.2943 4.5770 -3.6814 -19.2299 -1.6136 0.0000 0.0000 0.0000 -11.3480 3.1225 -13.0230 3.9334 12.0713 35.9845 1.9264 4.4882 -28.1372 8.0588 -16.1623 -52.7742 0.0000 0.0000 0.0000 17.3746 14.5686 -2.6539 -1.2025 -6.9573 19.5889 -0.8187 -0.5707 -17.3142 -0.5802 4.8774 -13.5591 -0.7344 0.8905 17.6938 0.5367 0.9975 6.0366 0.7829 0.4541 -3.4710 10.3344 3.7812 -14.1614 -3.0452 3.4258 8.4994 -2.3175 1.8170 5.0948 0.0000 0.0000 0.0000 -89.5384 8.1044 58.7210 138.6979 -48.8227 -100.5863 -0.0000 0.0000 -9.9295 17.4080 -33.4598 -9.8076 -7.1250 0.0000 -0.0000 -8.2631 -4.4060 8.9642 0.0000 0.0000 0.0000 87.6096 0.6734 79.7418 -143.8987 45.5827 -104.4052 0.0000 0.0000 6.4278 -23.3745 -25.6302 10.5896 7.1250 -0.0000 -0.0000 7.1193 -57.4324 -2.1750
-0.1308 18.2939 4.5679 -3.5467 -19.0518 -1.7169 0.0000 0.0000 0.0000 -11.5284 2.9619 -12.9846 3.9331 12.0709 35.9832 1.9160 4.5689 -28.1081 8.0770 -16.1756 -52.8396 0.0000 0.0000 0.0000 17.2053 14.4306 -2.6574 -1.2036 -6.9604 19.5983 -0.8225 -0.6004 -17.3652 -0.5883 4.9108 -13.6545 -0.7627 0.9243 17.8591 0.4998 1.0341 6.0279 0.7506 0.4727 -3.5675 10.3447 3.7003 -14.6381 -3.2297 3.2843 8.8675 -2.3848 1.7401 5.2817 0.0000 -0.0000 0.0000 -89.6094 7.7651 59.2059 138.8729 -48.7237 -100.7179 -0.0000 0.0000 -9.9199 17.4236 -33.3772 -9.7958 -7.1250 0.0000 -0.0000 -8.2441 -4.3266 8.9326 0.0000 -0.0000 0.0000 87.7331 0.5726 79.8390 -144.2726 45.3246 -104.6717 0.0000 0.0000 6.4765 -23.4804 -25.7058 10.6708 7.1250 -0.0000 -0.0000 7.0374 -57.5341 -2.1670
-0.1203 18.2927 4.5603 -3.3812 -18.9225 -1.8720 0.0000 0.0000 0.0000 -11.7506 2.8093 -12.8907 3.9338 12.0718 35.9865 1.9131 4.6295 -28.1194 8.0625 -16.1651 -52.7876 0.0000 0.0000 0.0000 17.0114 14.3333 -2.6155 -1.2095 -6.9768 19.6466 -0.8272 -0.6242 -17.4231 -0.6011 4.9631 -13.8035 -0.7491 0.9456 17.9913 0.4104 1.0581 6.0905 0.6424 0.4847 -3.5688 10.4160 3.6927 -14.9545 -3.4230 3.2485 9.0111 -2.4576 1.7122 5.3802 0.0000 0.0000 0.0000 -89.6369 7.3620 59.6628 139.0609 -48.6166 -100.8591 -0.0000 0.0000 -9.8873 17.4702 -33.4139 -9.8326 -7.1250 0.0000 -0.0000 -8.2228 -4.3720 8.9151 0.0000 0.0000 0.0000 87.9170 0.5813 79.9813 -144.5759 45.1126 -104.8870 0.0000 0.0000 6.6014 -23.5766 -25.5928 10.6758 7.1250 -0.0000 -0.0000 6.8837 -57.4384 -2.1035
-0.1081 18.2910 4.5510 -3.2616 -18.8344 -1.9636 0.0000 0.0000 0.0000 -11.9159 2.6264 -12.8795 3.9471 12.0897 36.0501 1.9234 4.5764 -28.1616 7.9877 -16.1102 -52.5184 0.0000 0.0000 0.0000 16.8571 14.3491 -2.6469 -1.2249 -7.0195 19.7732 -0.8373 -0.6249 -17.5284 -0.5922 4.9266 -13.6994 -0.8358 1.0095 17.9868 0.4291 1.1265 6.2033 0.6982 0.5166 -3.4496 10.2632 3.7435 -14.8994 -3.4412 3.3560 8.7971 -2.4298 1.7539 5.3085 0.0000 -0.0000 0.0000 -89.7988 6.8930 60.1477 139.2367 -48.5157 -100.9909 -0.0000 0.0000 -9.8694 17.6502 -33.5771 -9.9804 -7.1250 0.0000 -0.0000 -8.1439 -4.5689 8.8537 0.0000 -0.0000 0.0000 87.9335 0.6293 80.0995 -144.9377 44.8566 -105.1427 0.0000 0.0000 6.8331 -23.5446 -25.4904 10.6210 7.1250 -0.0000 -0.0000 6.8744 -57.3250 -2.0818
-0.0944 18.2880 4.5312 -3.2227 -18.5928 -1.8787 0.0000 0.0000 0.0000 -11.9837 2.3318 -13.1057 3.9715 12.1223 36.1662 1.9262 4.4205 -28.1022 7.9077 -16.0509 -52.2294 0.0000 0.0000 0.0000 16.7430 14.3646 -2.8821 -1.2422 -7.0672 19.9146 -0.8514 -0.6837 -17.6958 -0.5709 4.8391 -13.4502 -0.7753 0.9805 18.0933 0.4021 1.0978 6.1631 0.6395 0.5038 -3.5459 10.0729 3.8066 -14.6656 -3.2831 3.4848 8.5420 -2.3403 1.8180 5.1927 0.0000 0.0000 0.0000 -89.8350 6.5665 60.6165 139.4787 -48.3757 -101.1720 -0.0000 0.0000 -9.9201 17.8478 -33.6344 -10.1121 -7.1250 0.0000 -0.0000 -8.0420 -4.6640 8.7530 0.0000 0.0000 0.0000 88.0417 0.5193 80.3326 -145.3702 44.5460 -105.4470 0.0000 0.0000 7.0373 -23.4878 -25.4884 10.5922 7.1250 -0.0000 -0.0000 6.9351 -57.3106 -2.0979
-0.0795 18.2820 4.4928 -3.2771 -18.0409 -1.5370 0.0000 0.0000 0.0000 -11.9318 1.8370 -13.6936 4.0045 12.1663 36.3230 1.9000 4.2548 -27.8450 7.8793 -16.0298 -52.1269 0.0000 0.0000 0.0000 16.6509 14.2480 -3.4664 -1.2628 -7.1232 20.0810 -0.8662 -0.8446 -17.9104 -0.5517 4.7580 -13.2197 -0.6640 0.8201 18.1730 0.4346 0.9117 6.0465 0.6478 0.4145 -3.7074 9.9827 3.8512 -14.6179 -3.2962 3.5693 8.4247 -2.3232 1.8534 5.1521 -0.0000 0.0000 0.0000 -89.9430 6.1883 61.0472 139.7409 -48.2227 -101.3677 -0.0000 0.0000 -10.0008 17.9532 -33.6799 -10.1865 -7.1250 0.0000 -0.0000 -7.9897 -4.7296 8.7033 -0.0000 0.0000 0.0000 88.1033 0.5752 80.6420 -145.7816 44.2459 -105.7347 0.0000 0.0000 7.1021 -23.5620 -25.4695 10.6217 7.1250 -0.0000 -0.0000 6.8466 -57.3073 -2.0704
-0.0607 18.2784 4.4753 -3.3222 -17.8891 -1.4581 0.0000 0.0000 0.0000 -11.9141 1.7434 -13.9330 4.0318 12.2027 36.4527 1.8956 4.1446 -27.7618 7.8656 -16.0195 -52.0770 0.0000 0.0000 0.0000 16.6084 14.2127 -3.7209 -1.2868 -7.1881 20.2739 -0.8767 -0.8091 -18.0027 -0.5425 4.7188 -13.1083 -0.4732 0.7790 18.2154 0.4253 0.8900 6.0975 0.5341 0.4044 -3.6721 10.0161 3.8834 -14.6470 -3.4736 3.6239 8.3263 -2.3796 1.8669 5.1332 0.0000 -0.0000 0.0000 -90.0586 5.7468 61.5204 139.9611 -48.0929 -101.5318 -0.0000 0.0000 -10.1208 18.0571 -33.8704 -10.2982 -7.1250 0.0000 -0.0000 -7.9576 -4.9400 8.6945 0.0000 -0.0000 0.0000 88.1676 0.6949 80.9119 -146.2051 43.9322 -106.0294 0.0000 0.0000 7.2440 -23.5726 -25.3640 10.5867 7.1250 -0.0000 -0.0000 6.7903 -57.2001 -2.0357
-0.0379 18.2760 4.4595 -3.1222 -17.8302 -1.5172 0.0000 0.0000 0.0000 -12.1799 1.7050 -14.0734 4.0503 12.2271 36.5401 1.8927 4.1043 -27.7227 7.8354 -15.9969 -51.9677 0.0000 0.0000 0.0000 16.3044 14.2069 -3.9028 -1.3086 -7.2464 20.4474 -0.8823 -0.7338 -18.0298 -0.5437 4.7240 -13.1230 -0.5141 0.8062 18.3266 0.3595 0.9133 6.1783 0.4823 0.4153 -3.6440 10.0565 3.9390 -14.6299 -3.6901 3.7175 8.1451 -2.4467 1.8959 5.0846 0.0000 0.0000 0.0000 -90.1888 5.2563 62.0518 140.1635 -47.9727 -101.6823 -0.0000 0.0000 -10.2665 18.1122 -34.0936 -10.3896 -7.1250 0.0000 -0.0000 -7.9572 -5.1738 8.7236 0.0000 0.0000 0.0000 88.1461 0.7294 81.1067 -146.6861 43.5699 -106.3621 0.0000 0.0000 7.5516 -23.4613 -25.1357 10.4453 7.1250 -0.0000 -0.0000 6.8143 -56.9388 -1.9999
